<?xml version="1.0" encoding="iso-8859-1"?>
<!-- Generator: Adobe Illustrator 16.0.0, SVG Export Plug-In . SVG Version: 6.00 Build 0)  -->
<!DOCTYPE svg PUBLIC "-//W3C//DTD SVG 1.1//EN" "http://www.w3.org/Graphics/SVG/1.1/DTD/svg11.dtd">
<svg version="1.1" id="Layer_1" xmlns="http://www.w3.org/2000/svg" xmlns:xlink="http://www.w3.org/1999/xlink" x="0px" y="0px"
	 width="159.98px" height="55.75px" viewBox="0 0 159.98 55.75" style="enable-background:new 0 0 159.98 55.75;"
	 xml:space="preserve">
<path style="fill-rule:evenodd;clip-rule:evenodd;fill:#14130F;" d="M27.997,8.513l-3,8.999h12.998l2-8.999H27.997z"/>
<path style="fill-rule:evenodd;clip-rule:evenodd;fill:#14130F;" d="M49.994,8.513l-7.999,8.999l14.998,1l7.999-9.999H49.994z"/>
<path style="fill-rule:evenodd;clip-rule:evenodd;" d="M23.997,21.511h28.996l-6.999,7.999l9.999,15.998l-13.999,1L35.996,33.51
	l-6,12.999H15.998L23.997,21.511z"/>
<path style="fill-rule:evenodd;clip-rule:evenodd;fill:#14130F;" d="M68.991,17.512l33.996,1l4-9.999H72.991L68.991,17.512z"/>
<path style="fill-rule:evenodd;clip-rule:evenodd;fill:#14130F;" d="M79.99,22.511h11.998l-4.999,23.997l-12.999-1L79.99,22.511z"/>
<path style="fill-rule:evenodd;clip-rule:evenodd;fill:#14130F;" d="M108.986,22.511l13.998-1c0,0-5.666,11.665-4,13.998l17.998,1
	l-2,9.999c0,0-19.664,2-25.997-3C108.986,43.508,101.987,40.176,108.986,22.511z"/>
<path style="fill-rule:evenodd;clip-rule:evenodd;fill:#E92C24;" d="M109.986,18.512h31.996l3-10.999l-26.997,1
	C117.985,8.513,113.319,11.846,109.986,18.512z"/>
</svg>
