<?xml version="1.0" encoding="utf-8"?>
<!-- Generator: Adobe Illustrator 16.0.0, SVG Export Plug-In . SVG Version: 6.00 Build 0)  -->
<!DOCTYPE svg PUBLIC "-//W3C//DTD SVG 1.1//EN" "http://www.w3.org/Graphics/SVG/1.1/DTD/svg11.dtd">
<svg version="1.1" id="Layer_1" xmlns="http://www.w3.org/2000/svg" xmlns:xlink="http://www.w3.org/1999/xlink" x="0px" y="0px"
	 width="316.24px" height="52.266px" viewBox="0 0 316.24 52.266" enable-background="new 0 0 316.24 52.266" xml:space="preserve">
<path fill="#FFFFFF" d="M19.497,5.513l-3,8.999h12.998l2-8.999H19.497z"/>
<path fill="#FFFFFF" d="M41.494,5.513l-7.999,8.999l14.998,1l7.999-9.999H41.494z"/>
<path fill="#FFFFFF" d="M15.497,18.51h28.996l-6.999,7.999l9.999,15.998l-13.999,1L27.496,30.51l-6,12.999H7.498L15.497,18.51z"/>
<path fill="#FFFFFF" stroke="#FFFFFF" stroke-miterlimit="10" d="M60.491,14.512l33.996,1l4-9.999H64.491L60.491,14.512z"/>
<path fill="#FFFFFF" d="M71.49,19.51h11.998l-4.999,23.997l-12.999-1L71.49,19.51z"/>
<path fill="#FFFFFF" d="M100.486,19.51l13.998-1c0,0-5.666,11.665-4,13.998l17.998,1l-2,9.999c0,0-19.664,2-25.997-3
	C100.486,40.508,93.487,37.176,100.486,19.51z"/>
<path fill="#E92C24" d="M101.486,15.512h31.996l3-10.999l-26.997,1C109.485,5.513,104.819,8.846,101.486,15.512z"/>
<path fill="none" stroke="#14130F" stroke-miterlimit="10" d="M-184-221"/>
<g>
	<path fill="#FFFFFF" d="M142.05,12.012c0,0,0.221,6.375,0.35,12.749c0.045,1.594,0.104,3.188,0.121,4.682
		c-0.015,0.747-0.003,1.472-0.041,2.153c-0.029,0.688-0.057,1.332-0.083,1.93c-0.022,0.601-0.08,1.146-0.111,1.634
		c-0.033,0.483-0.069,0.906-0.11,1.258c-0.068,0.694-0.126,1.096-0.126,1.096h-0.1c0,0-0.058-0.396-0.126-1.096
		c-0.041-0.352-0.078-0.771-0.11-1.258c-0.031-0.485-0.088-1.033-0.111-1.634c-0.026-0.598-0.054-1.242-0.083-1.93
		c-0.037-0.685-0.025-1.406-0.041-2.153c0.017-1.491,0.076-3.088,0.121-4.682c0.129-6.375,0.35-12.749,0.35-12.749H142.05z"/>
</g>
<g>
	<text transform="matrix(1 0 0 1 149.1089 30.6956)" fill="#FFFFFF" font-family="'MyriadPro-Regular'" font-size="14">Khallouf Trading Company</text>
</g>
</svg>
